<?xml version="1.0" encoding="utf-8"?>
<!-- Generator: Adobe Illustrator 23.0.3, SVG Export Plug-In . SVG Version: 6.00 Build 0)  -->
<svg version="1.1" id="Layer_1" xmlns="http://www.w3.org/2000/svg" xmlns:xlink="http://www.w3.org/1999/xlink" x="0px" y="0px"
	 viewBox="0 0 254.4 177.1" style="enable-background:new 0 0 254.4 177.1;" xml:space="preserve">
<style type="text/css">
	.st0{fill:#2F415A;stroke:#242832;stroke-width:0.2799;stroke-miterlimit:10;}
	.st1{fill:#5FBB46;}
</style>
<path class="st0" d="M174,89.2c0.8,0-1-7.6-1.3-8.1c-2.2-4.6-8.3-6.2-13-4.7c-4.1,1.3-7.6,3.1-12,3.3c-1.1,0.1-2.3,0-3.4-0.4
	c-7-2.8-4.7-17.2-4.4-22.9c0.1-1.2,1.8-16.5,1.1-16.7s-19.8-3.6-27.6-4.4c-7.8-0.7-12,0-12.4,5.5c-0.2,3,2.9,5.2,4.2,7.7
	c1.5,2.9,1.8,6.5,0.8,9.7c-1.4,4.2-4.7,7.6-8.8,9.5c-4,1.9-8.6,2.3-13,1.9c-4.4-0.5-8.9-1.9-11.7-5.3c-2.6-3.1-3.5-7.4-2.9-11.4
	c0.4-2.5,1.2-4.9,2.3-7.2c0.9-1.8,2.7-3.7,3-5.8c0.7-4.1-4.4-4.7-7.4-4.7c-11.3-0.3-32,5-32,5c0.7,5.9,1.2,11.9,1.3,17.8
	c0.2,7,1.6,22.1-8.8,22.5c-3.4,0.1-6.5-1.8-9.7-2.9c-2.8-1-5.9-1.3-8.8-0.6c-5.9,1.4-8.2,6.6-8,12.2c-0.2,5.6,2.1,10.7,8,12.2
	c2.9,0.7,6,0.4,8.8-0.6c3.2-1.1,6.3-3,9.7-2.9c10.3,0.4,9,15.5,8.8,22.5c-0.2,5.9-0.6,11.9-1.3,17.8c0,0,20.7,5.3,32,5
	c3-0.1,8.2-0.6,7.4-4.7c-0.4-2.1-2.1-3.9-3-5.8c-1.1-2.3-2-4.7-2.3-7.2c-0.6-4,0.3-8.3,2.9-11.4c2.8-3.3,7.3-4.8,11.7-5.3
	c4.4-0.5,9,0,13,1.9s7.4,5.3,8.8,9.5c1,3.1,0.8,6.7-0.8,9.7c-1.3,2.5-4.4,4.7-4.2,7.7c0.4,5.5,4.5,6.2,12.4,5.5
	c7.8-0.7,26.9-4.2,27.6-4.4c0.8-0.2-1-15.5-1.1-16.7c-0.3-5.7-2.6-20.1,4.4-22.9c1.1-0.4,2.2-0.4,3.4-0.4c4.4,0.2,7.9,2,12,3.3
	c4.7,1.5,10.7,0,13-4.7C173,96.8,174.8,89.2,174,89.2z"/>
<path class="st1" d="M197.7,175.2c0,0.8,7.6-1,8.1-1.3c4.6-2.2,6.2-8.3,4.7-13c-1.3-4.1-3.1-7.6-3.3-12c-0.1-1.1,0-2.3,0.4-3.4
	c2.8-7,17.2-4.7,22.9-4.4c1.2,0.1,16.5,1.8,16.7,1.1s3.6-19.8,4.4-27.6c0.7-7.8,0-12-5.5-12.4c-3-0.2-5.2,2.9-7.7,4.2
	c-2.9,1.5-6.5,1.8-9.7,0.8c-4.2-1.4-7.6-4.7-9.5-8.8c-1.9-4-2.3-8.6-1.9-13c0.5-4.4,1.9-8.9,5.3-11.7c3.1-2.6,7.4-3.5,11.4-2.9
	c2.5,0.4,4.9,1.2,7.2,2.3c1.8,0.9,3.7,2.7,5.8,3c4.1,0.7,4.7-4.4,4.7-7.4c0.3-11.3-5-32-5-32c-5.9,0.7-11.9,1.2-17.8,1.3
	c-7,0.2-22.1,1.6-22.5-8.8c-0.1-3.4,1.8-6.5,2.9-9.7c1-2.8,1.3-5.9,0.6-8.8c-1.4-5.9-6.6-8.2-12.2-8c-5.6-0.2-10.7,2.1-12.2,8
	c-0.7,2.9-0.4,6,0.6,8.8c1.1,3.2,3,6.3,2.9,9.7c-0.4,10.3-15.5,9-22.5,8.8c-5.9-0.2-11.9-0.6-17.8-1.3c0,0-5.3,20.7-5,32
	c0.1,3,0.6,8.2,4.7,7.4c2.1-0.4,3.9-2.1,5.8-3c2.3-1.1,4.7-2,7.2-2.3c4-0.6,8.3,0.3,11.4,2.9c3.3,2.8,4.8,7.3,5.3,11.7
	c0.5,4.4,0,9-1.9,13s-5.3,7.4-9.5,8.8c-3.1,1-6.7,0.8-9.7-0.8c-2.5-1.3-4.7-4.4-7.7-4.2c-5.5,0.4-6.2,4.5-5.5,12.4
	c0.7,7.8,4.2,26.9,4.4,27.6c0.2,0.8,15.5-1,16.7-1.1c5.7-0.3,20.1-2.6,22.9,4.4c0.4,1.1,0.4,2.2,0.4,3.4c-0.2,4.4-2,7.9-3.3,12
	c-1.5,4.7,0,10.7,4.7,13C190.1,174.2,197.7,176.1,197.7,175.2z"/>
</svg>
