<?xml version="1.0" encoding="UTF-8" standalone="no"?>
<svg xmlns="http://www.w3.org/2000/svg" height="104px" width="233px" version="1.1" xmlns:xlink="http://www.w3.org/1999/xlink" viewBox="0 0 233 104"><!-- Generator: Sketch 53.2 (72643) - https://sketchapp.com -->
 <title>Official JJK Logo</title>
 <desc>Created with Sketch.</desc>
 <defs>
  <polygon id="path-1" points="0.5648 15 12.073 15 12.073 0.3204 0.5648 0.3204"/>
 </defs>
 <g id="subscriptions" fill-rule="evenodd" fill="none">
  <g id="oit-sub" transform="translate(-1178 -1475)">
   <g id="Group-15" transform="translate(250 1406)">
    <g id="Group-10" transform="translate(802 68)">
     <g id="Official-JJK-Logo" transform="translate(126 .39844)">
      <path id="Fill-1" fill="#8E213F" d="m46.6 41.928c-9.584 8.802-17.674 22.498-21.22 32.792l-0.896 0.004c3.538-10.596 12.062-25.008 22.108-33.914l0.008 1.118z"/>
      <path id="Fill-3" fill="#8E213F" d="m46.6 45.187c-8.292 8.396-15.232 20.164-18.7 29.524h-0.922c3.494-9.706 10.852-22.178 19.616-30.77l0.006 1.246z"/>
      <path id="Fill-5" fill="#8E213F" d="m0.1406 41.463c9.118 9.07 17.072 23.154 20.47 33.246l0.952 0.004c-3.404-10.406-11.834-25.312-21.418-34.468l-0.0044 1.218z"/>
      <path id="Fill-7" fill="#8E213F" d="m0.1484 44.877c7.9 8.582 14.712 20.596 18.098 29.834h0.87c-3.4-9.562-10.62-22.314-18.964-31.104l-0.0036 1.27z"/>
      <path id="Fill-9" fill="#8E213F" d="m14.818 23.275c3.67-5.592 6.698-11.482 8.616-16.81 3.734 10.636 11.272 23.666 20.274 31.806-8.946 8.03-16.658 20.396-20.668 30.452-4.072-10.106-11.746-22.78-20.298-30.8 4.3482-4.076 8.516-9.222 12.076-14.648l-1.464-1.076c-3.9318 5.902-8.5698 11.442-13.354 15.588 10.35 9.228 19.57 25.548 22.938 36.43 3.424-11.056 12.694-26.856 23.564-35.94-10.87-9.08-19.842-25.59-22.968-37.278-1.71 6.3944-5.43 14.066-10.18 21.2l1.464 1.076z"/>
      <path id="Fill-11" fill="#8E213F" d="m27.623 16.209c0 4.52-0.132 14.46-8.256 17.656l0.006-18.326c-1.358 2.586-2.886 5.194-4.554 7.736-0.652 0.99-1.318 1.976-2.008 2.942l0.002 23.7c2.442 3.544 4.662 7.25 6.556 10.89v-17.322c7.098 3.184 8.14 11.114 8.24 15.71 1.688-3.038 3.6-6.112 5.694-9.052-1.24-4.156-4.084-9.172-8.642-11.936 5.416-2.35 7.788-7.638 8.734-12.132-2.148-3.192-4.094-6.542-5.772-9.866"/>
      <path id="Fill-13" fill="#231F20" d="m75.756 56.435c0-1.456-0.548-2.678-1.65-2.678-1.122 0-1.608 1.426-1.608 2.852 0 1.196 0.468 3.116 0.894 4.106 1.406-0.67 2.364-2.096 2.364-4.28zm-5.662 10.54c0 2.416 1.464 5.472 3.298 5.472 0.834 0 1.63-0.468 2.324-1.078-1.57-2.476-2.852-5.27-3.832-8.268-0.082 0.032-0.162 0.088-0.224 0.176-0.998 0.844-1.566 2.008-1.566 3.698zm6.458-4.832h5.74v1.25c-1.444-0.028-1.954 0.698-2.584 2.416l-0.406 1.136c-0.428 1.164-0.96 2.298-1.55 3.288 0.672 0.786 1.264 1.834 2.2 1.834 0.754 0 1.264-0.64 1.59-1.572 0.12-0.464 0.244-0.96 0.326-1.454l0.834 0.232c-0.042 0.67-0.204 1.282-0.388 1.892-0.652 2.038-1.446 3.058-3.076 3.058-1.078 0-2.24-0.788-2.932-1.95-1.08 1.22-2.464 2.124-3.87 2.124-1.14 0-2.362-0.408-3.2-1.602-0.792-1.136-1.282-2.706-1.282-4.31 0-3.054 1.772-5.296 3.564-6.46-0.426-1.222-0.876-2.796-0.876-4.164 0-1.63 0.184-2.736 0.98-3.96 0.67-1.016 1.486-1.396 2.506-1.396 2.668 0 3.238 2.562 3.238 3.988 0 2.328-1.53 4.512-3.586 5.356 1.018 2.562 2.078 5.126 3.38 7.424 0.632-1.106 1.448-2.912 1.448-4.366 0-1.63-1.264-1.368-2.056-1.514v-1.25z"/>
      <path id="Fill-15" fill="#231F20" d="m97.057 65.635l-2.404-8.558-2.32 8.558h4.724zm-2.22-13.128h0.794l5.399 18.862c0.4 1.37 0.87 1.224 1.81 1.282v1.308h-6.251v-1.308c0.57-0.03 1.162 0 1.71-0.176 0.204-0.028 0.428-0.318 0.428-0.64 0-0.116-0.042-0.318-0.082-0.494l-1.202-4.222h-5.5c-0.224 0.788-0.426 1.544-0.608 2.358-0.144 0.582-0.246 0.932-0.246 1.516 0 1.6 1.262 1.628 2.078 1.658v1.308h-5.378v-1.308c1.1-0.03 1.73-0.844 2.12-2.27l4.928-17.874z"/>
      <path id="Fill-17" fill="#231F20" d="m109.3 60.133h0.67v4.862h-0.73c-0.41-2.154-1.35-3.814-3.02-3.814-0.89 0-1.87 0.668-1.87 2.126 0 1.57 1.3 1.92 2.12 2.152l1.2 0.382c0.87 0.232 1.48 0.434 2.16 1.308 0.55 0.758 0.79 1.718 0.79 2.794 0 1.484-0.24 2.416-1.04 3.406-0.55 0.668-1.57 1.05-2.28 1.05-1.02 0-2.06-0.44-2.83-1.428l-0.71 1.282h-0.68v-5.532h0.76c0.47 2.562 1.53 4.512 3.52 4.512 0.9 0 2.04-0.758 2.04-2.24 0-1.05-0.39-1.574-1.04-1.952-0.69-0.378-1.22-0.524-1.93-0.758-0.29-0.086-0.58-0.202-0.86-0.29-0.67-0.262-1.34-0.524-1.79-1.34-0.41-0.756-0.55-1.63-0.55-2.59 0-2.504 1.24-4.046 2.97-4.046 0.89 0 1.79 0.378 2.48 1.192l0.62-1.076z"/>
      <path id="Fill-19" fill="#231F20" d="m118.12 60.133h0.67v4.862h-0.74c-0.4-2.154-1.34-3.814-3.01-3.814-0.9 0-1.87 0.668-1.87 2.126 0 1.57 1.3 1.92 2.11 2.152l1.21 0.382c0.87 0.232 1.48 0.434 2.16 1.308 0.54 0.758 0.79 1.718 0.79 2.794 0 1.484-0.25 2.416-1.04 3.406-0.55 0.668-1.57 1.05-2.28 1.05-1.02 0-2.06-0.44-2.83-1.428l-0.72 1.282h-0.67v-5.532h0.76c0.47 2.562 1.52 4.512 3.52 4.512 0.9 0 2.04-0.758 2.04-2.24 0-1.05-0.39-1.574-1.04-1.952-0.69-0.378-1.22-0.524-1.94-0.758-0.28-0.086-0.57-0.202-0.85-0.29-0.67-0.262-1.35-0.524-1.8-1.34-0.4-0.756-0.54-1.63-0.54-2.59 0-2.504 1.24-4.046 2.97-4.046 0.9 0 1.79 0.378 2.48 1.192l0.62-1.076z"/>
      <path id="Fill-21" fill="#231F20" d="m122.45 67.351c0 2.04 0.31 5.94 2.24 5.94 2.16 0 2.4-3.61 2.4-5.94 0-1.512 0-2.648-0.36-4.044-0.35-1.252-0.94-2.126-1.94-2.126-2.13 0-2.34 3.872-2.34 6.17m-2.08-0.028c0-2.066 0.29-3.464 1.19-5.066 0.75-1.34 1.87-2.24 3.11-2.24 2.9 0 4.5 3.462 4.5 7.334 0 3.874-1.6 7.046-4.46 7.046-2.77 0-4.34-3.378-4.34-7.074"/>
      <path id="Fill-23" fill="#231F20" d="m137.93 70.176c-0.45 1.716-1.14 3.376-2.44 3.9-0.41 0.176-0.96 0.322-1.39 0.322-2.56 0-4.15-3.29-4.15-6.726 0-4.28 1.5-7.654 4.7-7.654 0.9 0 1.57 0.318 2.24 1.134 0.43 0.524 0.8 1.282 0.8 2.126 0 1.106-0.33 2.096-1.21 2.096-0.67 0-1.22-0.582-1.22-1.602 0-0.554 0.17-0.814 0.37-1.222 0.04-0.058 0.18-0.38 0.18-0.438 0-0.67-0.89-0.93-1.18-0.93-2.04 0-2.6 3.462-2.6 5.792 0 2.65 0.52 5.676 2.78 5.676 1.25 0 1.98-1.366 2.39-2.91l0.73 0.436z"/>
      <path id="Fill-25" fill="#231F20" d="m140.8 56.553c-0.65 0-1.18-0.874-1.18-1.778 0-0.9 0.59-1.658 1.2-1.658 0.65 0 1.2 0.786 1.2 1.718 0 0.902-0.59 1.718-1.22 1.718zm-2.59 17.406v-1.018h0.55c0.35-0.058 0.76 0 1.06-0.232 0.2-0.61 0.16-1.34 0.16-2.008v-6.694c0-0.556 0.02-1.108-0.1-1.632-0.14-0.32-0.38-0.29-0.61-0.35l-1.22-0.058v-1.222l3.81-0.292v11.18c0 0.9-0.08 1.194 0.59 1.25 0.37 0.03 0.75 0.088 1.12 0.058v1.018h-5.36z"/>
      <path id="Fill-27" fill="#231F20" d="m146.38 70.67c0 1.398 0.79 2.272 1.71 2.272 0.85 0 1.73-0.7 2.24-1.658 0.55-1.02 0.47-2.01 0.49-3.234v-1.28c-1.61 0.438-4.44 0.758-4.44 3.9zm6.23-0.756c0 0.408 0 0.814 0.02 1.252 0.02 0.408 0.12 0.99 0.41 1.194 0.18 0.202 0.45 0.232 0.67 0.146 0.21-0.088 0.39-0.206 0.57-0.292 0.21 0.06 0.27 0.146 0.27 0.436-0.23 0.99-1.12 1.572-1.82 1.572-1.04 0-1.54-0.758-1.81-2.154-0.9 1.544-2.28 2.33-3.67 2.33-1.54 0-2.87-1.02-2.87-3.464 0-3.844 4.42-4.92 6.44-5.328 0.04-0.67 0-1.37-0.02-2.066-0.06-1.778-1.08-2.214-2.18-2.214-0.57 0-1.32 0.058-1.75 0.612-0.23 0.29-0.14 0.522 0 0.846 0.12 0.348 0.3 0.726 0.3 1.19 0 1.02-0.49 1.428-1.14 1.428-0.73 0-1.08-0.844-1.08-1.834 0-1.28 0.74-2.3 1.49-2.794 0.88-0.582 1.55-0.756 2.48-0.756 0.66 0 1.35 0.114 1.96 0.406 1.63 0.844 1.79 2.212 1.79 4.454l-0.06 5.036z"/>
      <path id="Fill-29" fill="#231F20" d="m154.57 60.453c2.18-0.204 2.6-3.436 2.72-5.878h0.82v5.878h3.03v1.282h-3.03v8.704c0 0.844 0.04 2.24 1.32 2.24 1.29 0 1.57-2.474 1.57-3.958h0.82c0.02 3.026-0.7 5.678-3.08 5.678-1.4 0-2.5-1.314-2.5-3.148v-9.516h-1.67v-1.282z"/>
      <path id="Fill-31" fill="#231F20" d="m167.76 66.217c0.72 0 1.06 0.088 1.06-1.076 0-1.892-0.55-3.96-2.1-3.96-1.81 0-2.28 2.97-2.38 5.036h3.42zm-3.46 1.194c-0.08 2.678 0.74 5.502 2.89 5.502 1.19 0 1.96-0.67 2.65-2.01 0.08-0.202 0.19-0.406 0.25-0.61 0.08-0.144 0.14-0.32 0.2-0.494l0.69 0.55c-0.83 2.622-2.09 4.05-4.13 4.05-1.33 0-2.55-0.584-3.45-2.01-0.93-1.486-1.18-2.998-1.18-4.978 0-3.842 1.74-7.394 4.57-7.394 1.5 0 2.64 1.136 3.4 2.94 0.4 0.96 0.53 2.096 0.67 3.202 0.06 0.408 0.08 0.816 0.1 1.252h-6.66z"/>
      <path id="Fill-33" fill="#231F20" d="m178.33 60.133h0.68v4.862h-0.73c-0.41-2.154-1.35-3.814-3.02-3.814-0.9 0-1.88 0.668-1.88 2.126 0 1.57 1.31 1.92 2.12 2.152l1.2 0.382c0.88 0.232 1.49 0.434 2.17 1.308 0.55 0.758 0.79 1.718 0.79 2.794 0 1.484-0.24 2.416-1.04 3.406-0.55 0.668-1.57 1.05-2.28 1.05-1.02 0-2.06-0.44-2.83-1.428l-0.72 1.282h-0.67v-5.532h0.76c0.46 2.562 1.52 4.512 3.52 4.512 0.9 0 2.04-0.758 2.04-2.24 0-1.05-0.39-1.574-1.04-1.952-0.7-0.378-1.22-0.524-1.94-0.758-0.28-0.086-0.57-0.202-0.85-0.29-0.67-0.262-1.35-0.524-1.79-1.34-0.41-0.756-0.55-1.63-0.55-2.59 0-2.504 1.24-4.046 2.97-4.046 0.89 0 1.79 0.378 2.48 1.192l0.61-1.076z"/>
      <path id="Fill-35" fill="#231F20" d="m181.2 78.473c0.55-0.67 1.14-1.34 1.55-2.214 0.17-0.348 0.74-1.66 0.49-2.066-0.02-0.028-0.04-0.028-0.06-0.058h-0.06l-0.12 0.03c-0.43 0.088-0.63 0.028-1.04-0.174-0.39-0.38-0.59-0.846-0.59-1.516 0-0.9 0.61-1.688 1.24-1.688 1.22 0 1.73 1.37 1.73 2.972 0 2.384-1.44 4.276-2.69 5.558l-0.45-0.844z"/>
      <path id="Fill-37" fill="#231F20" d="m190.77 73.959v-1.308c0.43-0.03 1.37 0.028 1.73-0.176 0.53-0.292 0.53-0.726 0.53-1.456v-15.194c0-0.524 0.02-0.816-0.22-1.224-0.57-0.552-1.37-0.232-2.02-0.35v-1.308h6.72v1.308c-0.55 0-1.1 0-1.64 0.088-0.31 0.118-0.43 0.262-0.58 0.67-0.04 0.322-0.04 0.642-0.04 0.96v15.138c0 0.262-0.02 0.494 0.02 0.728 0.06 0.146 0.11 0.322 0.21 0.438 0.55 0.58 1.34 0.26 1.99 0.378v1.308h-6.7z"/>
      <path id="Fill-39" fill="#231F20" d="m198.23 72.941h0.51c0.32-0.058 0.71 0 0.99-0.232 0.12-0.088 0.17-0.38 0.17-0.584v-8.12c0-0.554 0.02-1.106-0.11-1.63-0.1-0.32-0.32-0.292-0.52-0.35l-1.04-0.058v-1.224l3.5-0.29v2.474h0.04c0.96-2.416 2.18-2.91 3.12-2.91 0.87 0 2.4 0.61 2.97 2.91 0.16 0.64 0.26 1.456 0.26 2.766v6.258c0 0.146 0.02 0.29 0.02 0.438 0.03 0.262 0.21 0.436 0.37 0.464 0.29 0.03 0.57 0.03 0.88 0.058l0.36 0.03v1.018h-5.15v-1.018c0.35 0.03 0.67-0.03 1.02-0.058 0.14 0 0.39-0.058 0.49-0.232 0.06-0.06 0.08-0.204 0.12-0.292 0.02-0.144 0.02-0.292 0.02-0.436v-6.318c0-1.046-0.06-1.542-0.1-1.95-0.12-1.164-0.98-1.922-1.86-1.922-0.87 0-1.66 0.844-2.09 1.922-0.43 1.106-0.43 2.154-0.43 3.378v4.86c0.02 0.146 0.02 0.322 0.04 0.496 0.04 0.67 0.9 0.494 1.22 0.522l0.39 0.03v1.018h-5.19v-1.018z"/>
      <path id="Fill-41" fill="#231F20" d="m218.18 70.176c-0.44 1.716-1.14 3.376-2.44 3.9-0.41 0.176-0.96 0.322-1.38 0.322-2.57 0-4.16-3.29-4.16-6.726 0-4.28 1.51-7.654 4.7-7.654 0.9 0 1.58 0.318 2.24 1.134 0.43 0.524 0.8 1.282 0.8 2.126 0 1.106-0.32 2.096-1.2 2.096-0.67 0-1.22-0.582-1.22-1.602 0-0.554 0.16-0.814 0.36-1.222 0.04-0.058 0.19-0.38 0.19-0.438 0-0.67-0.9-0.93-1.18-0.93-2.04 0-2.61 3.462-2.61 5.792 0 2.65 0.53 5.676 2.79 5.676 1.24 0 1.97-1.366 2.38-2.91l0.73 0.436z"/>
      <path id="Fill-43" fill="#231F20" d="m220.73 70.787c0.67 0 1.26 0.846 1.26 1.804 0 0.932-0.59 1.808-1.24 1.808-0.69 0-1.31-0.816-1.31-1.808 0-0.99 0.62-1.804 1.29-1.804"/>
      <path id="Stroke-45" stroke="#8E213F" stroke-width="3" d="m60.853 47.309h170.35"/>
      <path id="Fill-47" fill="#231F20" d="m76.719 28.35c-0.064 3.436-0.196 7.366-1.604 10.092-1.408 2.674-3.634 3.602-5.73 3.602-3.534 0-6.548-3.056-6.548-9.492 0-3.002 1.112-6.386 3.142-6.386 1.442 0 2.49 1.476 2.49 3.928 0 2.184-0.754 3.876-2.128 3.876-0.426 0-0.822-0.22-1.244-0.272-0.098 0-0.198 0.052-0.262 0.108-0.034 0.108-0.134 0.27-0.198 0.328-0.328 1.144 0.624 3 1.114 3.654 0.818 1.256 1.964 1.8 3.044 1.8 1.932 0 3.44-1.8 3.964-4.91 0.392-2.29 0.392-6.054 0.392-8.402v-18.442c0-0.6004 0.032-1.3084-0.066-1.9084-0.132-0.928-0.294-1.202-0.85-1.472-0.95-0.164-1.934-0.164-2.884-0.164v-2.456h10.906v2.456c-0.722 0-1.44 0.054-2.194 0.108-1.31 0.11-1.344 1.312-1.344 3.22v20.732z"/>
      <path id="Fill-49" fill="#231F20" d="m85.357 35.277c1.08 0 2.03 1.582 2.03 3.382 0 1.746-0.95 3.384-1.996 3.384-1.116 0-2.098-1.528-2.098-3.384 0-1.852 0.982-3.382 2.064-3.382"/>
      <path id="Fill-51" fill="#231F20" d="m114.42 28.35c-0.07 3.436-0.2 7.366-1.61 10.092-1.41 2.674-3.63 3.602-5.73 3.602-3.53 0-6.55-3.056-6.55-9.492 0-3.002 1.12-6.386 3.15-6.386 1.44 0 2.49 1.476 2.49 3.928 0 2.184-0.76 3.876-2.13 3.876-0.43 0-0.82-0.22-1.25-0.272-0.09 0-0.19 0.052-0.26 0.108-0.03 0.108-0.13 0.27-0.2 0.328-0.32 1.144 0.63 3 1.12 3.654 0.82 1.256 1.96 1.8 3.04 1.8 1.94 0 3.44-1.8 3.97-4.91 0.39-2.29 0.39-6.054 0.39-8.402v-18.442c0-0.6004 0.03-1.3084-0.07-1.9084-0.13-0.928-0.29-1.202-0.85-1.472-0.95-0.164-1.93-0.164-2.88-0.164v-2.456h10.9v2.456c-0.72 0-1.44 0.054-2.19 0.108-1.31 0.11-1.34 1.312-1.34 3.22v20.732z"/>
      <path id="Fill-53" fill="#231F20" d="m122.73 35.277c1.08 0 2.03 1.582 2.03 3.382 0 1.746-0.95 3.384-2 3.384-1.12 0-2.1-1.528-2.1-3.384 0-1.852 0.98-3.382 2.07-3.382"/>
      <path id="Fill-55" fill="#231F20" d="m137.74 41.225v-2.456c0.92 0 1.83 0 2.72-0.218 0.42-0.274 0.82-0.6 0.85-1.418 0.03-0.546 0.03-1.092 0.03-1.636v-28.044c0-0.6004 0-1.1444-0.06-1.7444-0.26-1.148-0.63-1.2-1.31-1.31-0.72-0.11-1.48-0.11-2.23-0.11v-2.454h10.77v2.454c-0.95 0-1.9 0-2.81 0.22-0.17 0.162-0.33 0.326-0.5 0.49-0.35 0.928-0.29 1.964-0.29 3.002v15.71l8.38-14.128c0.46-0.9284 1.35-2.4004 1.35-3.6024 0-0.874-0.53-1.472-1.02-1.528-0.65-0.054-1.31-0.164-1.96-0.164v-2.454h10.08v2.454c-2.49 0.164-4.16 1.91-5.86 4.802l-4.65 7.6924 7.83 18.878c0.23 0.544 0.42 1.146 0.72 1.582 0.29 0.708 0.75 1.144 1.24 1.308 0.69 0.11 1.35 0.218 2.03 0.218v2.456h-11.13v-2.456c0.98 0 2 0.11 2.95-0.382 0.13-0.052 0.26-0.216 0.36-0.38 0.26-0.874-0.33-2.02-0.63-2.674l-5.86-14.294-3.83 6.602v6c0 1.254-0.03 2.51 0.07 3.766 0.06 0.272 0.19 0.544 0.29 0.764 0.13 0.164 0.3 0.27 0.43 0.38 0.19 0 0.39 0.11 0.59 0.11l2.22 0.108v2.456h-10.77z"/>
      <path id="Fill-57" fill="#231F20" d="m173.26 26.713c1.14 0 1.7 0.162 1.7-2.02 0-3.544-0.89-7.42-3.37-7.42-2.92 0-3.67 5.566-3.84 9.44h5.51zm-5.57 2.236c-0.13 5.02 1.18 10.31 4.65 10.31 1.9 0 3.14-1.254 4.26-3.762 0.13-0.382 0.29-0.764 0.39-1.148 0.13-0.272 0.23-0.598 0.33-0.926l1.11 1.036c-1.34 4.91-3.37 7.584-6.65 7.584-2.13 0-4.09-1.092-5.53-3.766-1.51-2.78-1.9-5.618-1.9-9.328 0-7.2 2.78-13.858 7.33-13.858 2.43 0 4.26 2.128 5.47 5.51 0.66 1.802 0.85 3.93 1.08 6.002 0.1 0.764 0.14 1.528 0.17 2.346h-10.71z"/>
      <path id="Fill-59" fill="#231F20" d="m180.19 1.5604l6.06-0.544v36.442c0 0.438 0 0.928 0.13 1.31 0.07 0.22 0.3 0.382 0.43 0.438 0.49 0.11 1.01 0.054 1.51 0.11h0.65v1.908h-8.48v-1.908c0.72 0 1.44 0 2.16-0.166 0.26-0.162 0.39-0.382 0.52-0.816 0.1-0.766 0.07-1.584 0.07-2.348v-29.842c0-0.7096-0.03-1.1456-0.3-1.7456-0.52-0.71-1.27-0.49-1.89-0.548h-0.86v-2.29z"/>
      <path id="Fill-61" fill="#231F20" d="m191.16 1.5604l6.06-0.544v36.442c0 0.438 0 0.928 0.13 1.31 0.06 0.22 0.29 0.382 0.42 0.438 0.49 0.11 1.02 0.054 1.51 0.11h0.65v1.908h-8.48v-1.908c0.72 0 1.44 0 2.16-0.166 0.27-0.162 0.4-0.382 0.53-0.816 0.1-0.766 0.06-1.584 0.06-2.348v-29.842c0-0.7096-0.03-1.1456-0.29-1.7456-0.53-0.71-1.28-0.49-1.9-0.548h-0.85v-2.29z"/>
      <path id="Fill-63" fill="#231F20" d="m211.55 26.713c1.15 0 1.71 0.162 1.71-2.02 0-3.544-0.89-7.42-3.38-7.42-2.91 0-3.67 5.566-3.83 9.44h5.5zm-5.56 2.236c-0.14 5.02 1.18 10.31 4.64 10.31 1.9 0 3.15-1.254 4.26-3.762 0.13-0.382 0.3-0.764 0.39-1.148 0.14-0.272 0.23-0.598 0.33-0.926l1.12 1.036c-1.35 4.91-3.38 7.584-6.65 7.584-2.13 0-4.09-1.092-5.54-3.766-1.5-2.78-1.89-5.618-1.89-9.328 0-7.2 2.78-13.858 7.33-13.858 2.42 0 4.26 2.128 5.47 5.51 0.65 1.802 0.85 3.93 1.08 6.002 0.1 0.764 0.13 1.528 0.16 2.346h-10.7z"/>
      <path id="Fill-65" fill="#231F20" d="m224.58 22.402h0.07c0.39-2.892 1.96-7.31 4.88-7.31 1.44 0 2.58 1.746 2.58 4.256 0 2.072-0.65 3.708-1.96 3.708-0.98 0-1.7-1.364-1.7-2.946 0-0.762 0.16-1.582 0.45-2.236 0.07-0.166 0.17-0.272 0.23-0.436-3.99 0.762-4.55 12.056-4.55 14.51v6.222c0 1.362 1.64 1.146 2.23 1.146h0.85v1.908h-8.84v-1.908c0.39-0.056 0.78-0.11 1.18-0.11 1.63 0 1.57-0.546 1.57-3.22v-15.112c-0.26-2.29-1.28-2.074-2.36-2.126h-0.65v-2.294l6.02-0.544v6.492z"/>
      <path id="Fill-67" fill="#231F20" d="m104.22 94.131c-0.17-0.484-0.57-1.742-2.39-1.742-1.32 0-1.913 0.734-1.913 1.426 0 1.008 0.903 1.24 2.013 1.512 2.23 0.568 4.75 1.24 4.75 4.328 0 2.185-1.53 4.635-5.57 4.635-4.889 0-5.541-3.27-5.751-4.26l3.004-0.397c0.128 0.527 0.504 2.077 2.837 2.077 1.74 0 2.22-0.92 2.22-1.64 0-1.025-0.75-1.235-2.45-1.697-1.471-0.398-4.183-1.114-4.183-4.054 0-1.868 1.344-4.514 5.043-4.514 1.4 0 2.81 0.398 3.86 1.344 0.9 0.818 1.2 1.68 1.39 2.31l-2.86 0.672z"/>
      <path id="Fill-69" fill="#231F20" d="m112.87 92.787h-3.13l0.51-2.96h3.13l-0.51 2.96zm-1.87 11.233h-3.12l1.74-10.437h3.13l-1.75 10.437z"/>
      <path id="Fill-71" fill="#231F20" d="m117.75 95.559c0.88-1.638 2.08-2.162 3.12-2.162 1.79 0 2.8 1.322 2.8 2.834 0 0.462-0.04 0.712-0.25 1.932l-0.97 5.857h-3.02l1.02-6.089c0.05-0.272 0.15-0.922 0.15-1.156 0-1.09-0.97-1.09-1.07-1.09-0.71 0-1.32 0.484-1.59 1.072-0.32 0.628-0.36 0.944-0.55 2.098l-0.86 5.165h-3.03l1.75-10.435h2.83l-0.33 1.974z"/>
      <path id="Fill-73" fill="#231F20" d="m132.24 97.615c0.04-1.574-0.99-1.93-1.54-1.93-2.2 0-2.2 4.116-2.2 4.242 0 0.313 0 1.933 1.57 1.933 1.37 0 1.79-1.28 1.96-1.85l2.54 0.36c-0.99 2.9-2.82 3.86-4.86 3.86-3.21 0-4.49-2.45-4.49-4.743 0-2.396 1.43-6.09 5.55-6.09 3.42 0 4.24 2.686 4.17 4.05l-2.7 0.168z"/>
      <path id="Fill-75" fill="#231F20" d="m142.86 97.615c0.02-0.168 0.04-0.356 0.04-0.608 0-1.322-0.9-1.722-1.57-1.722-1.66 0-2.04 1.596-2.23 2.33h3.76zm-3.97 1.722c-0.06 0.442-0.06 0.59-0.06 0.783 0 1.68 1.11 2.01 1.76 2.01 1.45 0 1.94-1.28 2.06-1.66l2.56 0.44c-0.82 2.21-2.56 3.39-4.81 3.39-3.15 0-4.62-2.4-4.62-4.813 0-2.648 1.75-6.112 5.53-6.112 2.71 0 4.41 1.932 4.41 4.724 0 0.314-0.02 0.566-0.11 1.238h-6.72z"/>
      <path id="Fill-77" fill="#231F20" d="m163.63 104.02h-10.5l0.46-2.67h3.68l1.32-7.975c-1.09 1.048-2.44 1.048-3.84 1.008l0.44-2.604c3.23 0.04 4.37-1.576 4.74-2.122h2.36l-1.94 11.693h3.72l-0.44 2.67z"/>
      <path id="Fill-79" fill="#231F20" d="m173.31 94.174c0-1.072-0.86-2.04-2.04-2.04-1.24 0-2.2 0.99-2.2 2.228 0 1.132 0.82 2.078 2.04 2.078 1.09 0 1.78-0.692 2.05-1.406 0.15-0.4 0.15-0.798 0.15-0.86zm-5.23 6.156c0.13 0.41 0.42 1.45 1.87 1.45 2.23 0 2.92-2.484 3.45-5.066-0.38 0.652-1.18 2.1-3.24 2.1-2.1 0-4.2-1.576-4.2-4.222 0-2.268 1.81-4.828 5.17-4.828 3.69 0 5.35 2.75 5.35 5.984 0 2.834-1.64 8.462-6.63 8.462-0.76 0-2.29-0.17-3.45-1.24-0.78-0.73-0.98-1.41-1.17-2.01l2.85-0.63z"/>
      <path id="Fill-81" fill="#231F20" d="m188.6 92.766h-6.18l-0.77 3.234c0.31-0.358 1.07-1.198 2.73-1.198 2.24 0 4.34 1.662 4.34 4.306 0 2.792-2.28 5.122-5.71 5.122-1.74 0-3.44-0.65-4.55-1.97-0.59-0.7-0.78-1.43-0.89-1.93l3.11-0.488c0.42 1.748 2.04 1.788 2.37 1.788 1.73 0 2.4-1.28 2.4-2.374 0-1.304-0.95-2.08-2.1-2.08-0.88 0-1.6 0.44-2.1 1.134l-2.65-0.904 1.77-7.392h8.96l-0.73 2.752z"/>
      <g id="Group-85" transform="translate(189 89.357)">
       <mask id="mask-2" fill="white">
        <use xlink:href="#path-1"/>
       </mask>
       <path id="Fill-83" fill="#231F20" mask="url(#mask-2)" d="m3.2948 10.234c0.106 0.356 0.252 0.88 0.756 1.406 0.734 0.818 1.658 0.818 1.932 0.818 1.616 0 2.288-0.986 2.288-1.952 0-0.6496-0.336-1.4276-1.132-1.7216-0.36-0.148-0.778-0.168-1.598-0.168h-1.05l0.336-2.374h1.492c0.796 0 1.364-0.062 1.848-0.378 0.42-0.272 0.692-0.84 0.692-1.408 0-1.112-0.944-1.68-1.952-1.68-1.576 0-2.1 1.158-2.352 1.68l-2.752-0.754c0.23-0.546 0.566-1.344 1.492-2.12 1.406-1.176 2.98-1.262 3.738-1.262 2.666 0 5.0402 1.282 5.0402 3.844 0 0.964-0.442 2.876-2.7722 3.34 0.398 0.146 1.0302 0.398 1.5962 1.132 0.46 0.652 0.672 1.3656 0.672 2.0576 0 1.892-1.5742 4.306-5.3762 4.306-1.05 0-2.71-0.148-4.16-1.534-1.07-1.028-1.32-2.036-1.468-2.708l2.73-0.524z"/>
      </g>
      <path id="Fill-86" fill="#231F20" d="m225.67 56.381c0.7 0 1.33-0.05 1.33-0.886 0-0.672-0.62-0.798-1.19-0.798h-1.12v1.684h0.98zm-0.98 3.054h-0.82v-5.436h2.06c1.29 0 1.93 0.474 1.93 1.546 0 0.972-0.62 1.396-1.41 1.496l1.54 2.394h-0.92l-1.43-2.354h-0.95v2.354zm1 1.212c2.13 0 3.81-1.672 3.81-3.942 0-2.232-1.68-3.914-3.81-3.914-2.16 0-3.84 1.682-3.84 3.914 0 2.27 1.68 3.942 3.84 3.942zm-4.79-3.942c0-2.706 2.19-4.702 4.79-4.702 2.56 0 4.76 1.996 4.76 4.702 0 2.73-2.2 4.726-4.76 4.726-2.6 0-4.79-1.996-4.79-4.726z"/>
      <path id="Fill-88" fill="#8E213F" d="m38.037 69.937c0.698 0 1.322-0.05 1.322-0.886 0-0.672-0.612-0.798-1.186-0.798h-1.122v1.684h0.986zm-0.986 3.054h-0.822v-5.436h2.068c1.286 0 1.922 0.474 1.922 1.546 0 0.972-0.612 1.396-1.408 1.496l1.544 2.394h-0.922l-1.432-2.354h-0.95v2.354zm0.998 1.212c2.13 0 3.814-1.672 3.814-3.942 0-2.232-1.684-3.914-3.814-3.914-2.158 0-3.84 1.682-3.84 3.914 0 2.27 1.682 3.942 3.84 3.942zm-4.788-3.942c0-2.706 2.194-4.7 4.788-4.7 2.568 0 4.764 1.994 4.764 4.7 0 2.73-2.196 4.726-4.764 4.726-2.594 0-4.788-1.996-4.788-4.726z"/>
     </g>
    </g>
   </g>
  </g>
 </g>
</svg>
