<?xml version="1.0" encoding="UTF-8" standalone="no"?>
<!-- Generator: Adobe Illustrator 23.0.3, SVG Export Plug-In . SVG Version: 6.00 Build 0)  -->
<svg id="Capa_1" style="enable-background:new 0 0 427.2 432" xmlns="http://www.w3.org/2000/svg" xml:space="preserve" viewBox="0 0 427.2 432" version="1.1" y="0px" x="0px" xmlns:xlink="http://www.w3.org/1999/xlink">
<style type="text/css">
	.st0{fill:#62BC47;}
	.st1{fill:#2F415A;}
	.st2{fill:#BCC5C9;}
	.st3{fill:#FFFFFF;}
</style>
<path class="st0" d="m213.8 427.7c-116.8 0-211.7-95-211.7-211.7 0-116.8 95-211.8 211.7-211.8 116.8 0 211.8 95 211.8 211.8 0 116.7-95 211.7-211.8 211.7zm0-398.1c-102.8 0-186.3 83.6-186.3 186.3s83.6 186.3 186.3 186.3 186.3-83.6 186.3-186.3c0.1-102.7-83.5-186.3-186.3-186.3z"/>
<path class="st1" d="m290.5 235v67.4h-111.8v-170.3h111.8v112.2h12.7v-135.1c0-11.2-9.1-20.3-20.3-20.3h-96.5c-11.2 0-20.3 9.1-20.3 20.3v213.4c0 11.2 9.1 20.3 20.3 20.3h96.4c11.2 0 20.3-9.1 20.3-20.3v-87.6h-12.6zm-66-123.2h20.3c1.4 0 2.5 1.1 2.5 2.5s-1.1 2.5-2.5 2.5h-20.3c-1.4 0-2.5-1.1-2.5-2.5s1.1-2.5 2.5-2.5zm9.3 219.2c-5.6 0-10.2-4.5-10.2-10.2 0-5.6 4.6-10.2 10.2-10.2s10.2 4.5 10.2 10.2c0 5.6-4.6 10.2-10.2 10.2z"/>
<rect y="153.8" x="92.4" height="12.7" class="st0" width="61"/>
<rect y="179.2" x="107.7" height="12.7" class="st0" width="45.7"/>
<rect y="204.6" x="138.1" height="12.7" class="st0" width="15.2"/>
<rect y="132.1" x="178.7" height="170.2" class="st2" width="111.8"/>
<path class="st0" d="m327.6 169.3l-5.1 2.1c-1.7-2.3-3.8-4.3-6-6l2.1-5.1c0.6-1.6-0.1-3.3-1.7-4l-8.4-3.5c-1.6-0.6-3.3 0.1-4 1.6l-2.2 5.1c-2.8-0.4-5.7-0.4-8.5 0l-2.1-5.1c-0.6-1.6-2.4-2.3-3.9-1.7l-8.5 3.5c-1.6 0.6-2.3 2.4-1.6 4l2.1 5.1c-2.3 1.7-4.3 3.8-6 6l-5.1-2.1c-1.5-0.6-3.3 0.1-4 1.7l-3.5 8.5c-0.6 1.6 0.1 3.3 1.6 4l5.1 2.1c-0.4 2.8-0.4 5.7 0 8.5l-5.1 2.1c-1.6 0.6-2.3 2.4-1.7 4l3.5 8.4c0.6 1.6 2.4 2.3 4 1.6l5.1-2.1c1.7 2.3 3.8 4.3 6 6l-2.1 5.1c-0.6 1.6 0.1 3.3 1.7 4l8.4 3.5c1.6 0.6 3.3-0.1 4-1.6l2.1-5.1c2.8 0.4 5.7 0.4 8.5 0l2.1 5.1c0.6 1.6 2.4 2.3 3.9 1.7l8.5-3.5c1.6-0.6 2.3-2.4 1.6-4l-2.1-5.1c2.3-1.7 4.3-3.8 6-6l5.1 2.1c1.6 0.6 3.4-0.1 4-1.7l3.5-8.4c0.6-1.6-0.1-3.3-1.7-4l-5.1-2.1c0.4-2.8 0.4-5.7 0-8.5l5.1-2.1c1.6-0.6 2.3-2.4 1.7-4l-3.5-8.4c-0.5-1.7-2.3-2.4-3.8-1.7zm-23.7 34.5c-7.8 3.2-16.7-0.5-19.9-8.3s0.5-16.7 8.3-19.9 16.7 0.5 19.9 8.3c3.2 7.7-0.5 16.7-8.3 19.9z"/>
<circle cy="189.6" cx="298.2" r="15.2" class="st3"/>
</svg>
