<?xml version="1.0" encoding="UTF-8" standalone="no"?>
<svg xmlns="http://www.w3.org/2000/svg" height="62px" width="319px" version="1.1" xmlns:xlink="http://www.w3.org/1999/xlink" viewBox="0 0 319 62"><!-- Generator: Sketch 49.3 (51167) - http://www.bohemiancoding.com/sketch -->
 <title>Group 3</title>
 <desc>Created with Sketch.</desc>
 <g id="Page-1" fill-rule="evenodd" fill="none">
  <g id="Desktop-HD-Copy-6" transform="translate(-115 -11)">
   <g id="Group-3" transform="translate(115 10)">
    <g id="Page-1" transform="translate(62.562 .27533)">
     <g id="Group-4" fill="#892040" transform="translate(2 .18605)">
      <path id="Fill-1" d="m92.613 2.1313h-0.782v0.9475h0.762c0.371 0 0.629-0.1744 0.629-0.4799 0-0.2939-0.231-0.4676-0.609-0.4676m0.33 1.2321l0.825 1.0707h-0.489l-0.768-1.0044h-0.68v1.0044h-0.393v-2.6601h1.188c0.59 0 1.004 0.3091 1.004 0.8012 0 0.4373-0.285 0.6953-0.687 0.7882m-0.482-2.5571c-1.347 0-2.363 1.0757-2.363 2.3806 0 1.3041 1.01 2.3654 2.35 2.3654 1.347 0 2.367-1.0764 2.367-2.3806 0-1.3041-1.011-2.3654-2.354-2.3654m-0.013 4.9679c-1.456 0-2.587-1.1694-2.587-2.5873 0-1.4216 1.146-2.6025 2.6-2.6025 1.457 0 2.59 1.1694 2.59 2.5873 0 1.418-1.148 2.6025-2.603 2.6025"/>
      <path id="Fill-3" d="m0.30788 12.376l1.0851-0.933c0.8185 1.237 1.6564 1.904 3.0455 1.904 1.5045 0 2.6083-1.085 2.6083-3.199v-8.9273h1.5231v8.9093c0 3.065-1.7703 4.607-4.1501 4.607-1.9987 0-3.274-0.99-4.1119-2.361z"/>
      <path id="Fill-7" d="m21.131 14.737c-1.998 0-3.274-0.99-4.111-2.361l1.085-0.933c0.819 1.237 1.656 1.904 3.046 1.904 1.504 0 2.607-1.085 2.607-3.199v-8.9273h1.524v8.9093c0 3.065-1.771 4.607-4.151 4.607"/>
      <polygon id="Fill-8" points="26.708 14.546 28.46 14.546 28.46 12.547 26.708 12.547"/>
      <polygon id="Fill-8-Copy" points="9.8301 14.546 11.582 14.546 11.582 12.547 9.8301 12.547"/>
      <polygon id="Fill-9" points="47.323 14.546 45.438 14.546 40.318 8.0928 37.481 10.968 37.481 14.546 35.977 14.546 35.977 1.2206 37.481 1.2206 37.481 9.1779 45.134 1.2206 47.076 1.2206 41.364 7.0459"/>
      <path id="Fill-10" d="m56.059 9.0828c-0.152-1.789-1.18-3.3504-3.14-3.3504-1.714 0-3.009 1.4274-3.199 3.3504h6.339zm-2.875 4.4162c1.352 0 2.305-0.552 3.104-1.389l0.913 0.818c-0.99 1.104-2.189 1.847-4.054 1.847-2.703 0-4.912-2.075-4.912-5.1403 0-2.8554 1.999-5.1401 4.721-5.1401 2.913 0 4.588 2.3229 4.588 5.2165 0 0.1333 0 0.2853-0.019 0.4569h-7.805c0.209 2.132 1.732 3.331 3.464 3.331z"/>
      <polygon id="Fill-11" points="60.436 14.547 61.902 14.547 61.902 0.6496 60.436 0.6496"/>
      <polygon id="Fill-12" points="65.632 14.547 67.098 14.547 67.098 0.6496 65.632 0.6496"/>
      <path id="Fill-13" d="m77.529 9.0828c-0.152-1.789-1.18-3.3504-3.141-3.3504-1.713 0-3.008 1.4274-3.198 3.3504h6.339zm-2.875 4.4162c1.352 0 2.304-0.552 3.104-1.389l0.913 0.818c-0.99 1.104-2.189 1.847-4.054 1.847-2.703 0-4.912-2.075-4.912-5.1403 0-2.8554 1.999-5.1401 4.721-5.1401 2.913 0 4.588 2.3229 4.588 5.2165 0 0.1333 0 0.2853-0.019 0.4569h-7.805c0.209 2.132 1.732 3.331 3.464 3.331z"/>
      <path id="Fill-14" d="m82.858 14.546h-1.467v-9.8417h1.467v2.57c0.723-1.6377 2.15-2.8172 4.016-2.7415v1.5801h-0.113c-2.152 0-3.903 1.5418-3.903 4.5121v3.921z"/>
     </g>
     <path id="Fill-15" fill="#222831" d="m0.64416 34.733l2.2203-2.653c1.42 1.131 3.0033 1.727 4.6686 1.727 1.0695 0 1.6453-0.371 1.6453-0.987v-0.041c0-0.597-0.4732-0.926-2.4263-1.378-3.064-0.699-5.4289-1.563-5.4289-4.524v-0.041c0-2.674 2.1177-4.607 5.5728-4.607 2.4476 0 4.359 0.658 5.922 1.913l-1.994 2.817c-1.3171-0.926-2.7558-1.419-4.0312-1.419-0.9669 0-1.4394 0.412-1.4394 0.925v0.042c0 0.658 0.4938 0.945 2.4882 1.398 3.3104 0.72 5.3674 1.789 5.3674 4.483v0.042c0 2.94-2.324 4.687-5.8198 4.687-2.5502 0-4.9765-0.801-6.745-2.384"/>
     <path id="Fill-16" fill="#222831" d="m24.749 31.195l-1.604-4.092-1.625 4.092h3.229zm-3.496-8.822h3.845l6.128 14.498h-4.277l-1.049-2.57h-5.552l-1.028 2.57h-4.195l6.128-14.498z"/>
     <polygon id="Fill-17" points="34.069 22.476 45.585 22.476 45.585 25.972 38.058 25.972 38.058 28.419 44.865 28.419 44.865 31.73 38.058 31.73 38.058 36.871 34.069 36.871" fill="#222831"/>
     <polygon id="Fill-18" points="49.66 22.476 61.237 22.476 61.237 25.869 53.608 25.869 53.608 28.049 60.518 28.049 60.518 31.195 53.608 31.195 53.608 33.478 61.34 33.478 61.34 36.871 49.66 36.871" fill="#222831"/>
     <polygon id="Fill-19" points="69.158 25.972 64.84 25.972 64.84 22.476 77.466 22.476 77.466 25.972 73.148 25.972 73.148 36.871 69.158 36.871" fill="#222831"/>
     <polygon id="Fill-20" points="85.633 31.483 80.163 22.476 84.707 22.476 87.669 27.72 90.651 22.476 95.113 22.476 89.643 31.421 89.643 36.871 85.633 36.871" fill="#222831"/>
     <polygon id="Fill-21" points="1.734 43.13 5.9495 43.13 9.3846 48.704 12.818 43.13 17.034 43.13 17.034 57.526 13.065 57.526 13.065 49.258 9.3846 54.894 9.302 54.894 5.6416 49.3 5.6416 57.526 1.734 57.526" fill="#222831"/>
     <path id="Fill-22" fill="#222831" d="m29.912 51.85l-1.604-4.093-1.625 4.093h3.229zm-3.496-8.822h3.845l6.128 14.498h-4.277l-1.049-2.57h-5.552l-1.028 2.57h-4.195l6.128-14.498z"/>
     <polygon id="Fill-23" points="39.232 43.13 42.954 43.13 48.876 50.739 48.876 43.13 52.825 43.13 52.825 57.526 49.329 57.526 43.18 49.629 43.18 57.526 39.232 57.526" fill="#222831"/>
     <path id="Fill-24" fill="#222831" d="m66.113 51.85l-1.604-4.093-1.624 4.093h3.228zm-3.496-8.822h3.845l6.128 14.498h-4.277l-1.048-2.57h-5.553l-1.028 2.57h-4.195l6.128-14.498z"/>
     <path id="Fill-25" fill="#222831" d="m74.013 50.369v-0.041c0-4.195 3.291-7.486 7.753-7.486 2.53 0 4.318 0.782 5.84 2.098l-2.344 2.818c-1.028-0.864-2.056-1.357-3.475-1.357-2.078 0-3.681 1.748-3.681 3.948v0.041c0 2.323 1.624 3.989 3.907 3.989 0.967 0 1.706-0.205 2.303-0.596v-1.748h-2.838v-2.92h6.621v6.478c-1.521 1.254-3.639 2.22-6.25 2.22-4.484 0-7.836-3.084-7.836-7.444"/>
     <polygon id="Fill-26" points="92.176 43.13 103.75 43.13 103.75 46.524 96.124 46.524 96.124 48.704 103.03 48.704 103.03 51.85 96.124 51.85 96.124 54.133 103.86 54.133 103.86 57.526 92.176 57.526" fill="#222831"/>
     <polygon id="Fill-27" points="108.16 43.13 112.37 43.13 115.81 48.704 119.24 43.13 123.46 43.13 123.46 57.526 119.49 57.526 119.49 49.258 115.81 54.894 115.73 54.894 112.07 49.3 112.07 57.526 108.16 57.526" fill="#222831"/>
     <polygon id="Fill-28" points="128.27 43.13 139.85 43.13 139.85 46.524 132.22 46.524 132.22 48.704 139.13 48.704 139.13 51.85 132.22 51.85 132.22 54.133 139.95 54.133 139.95 57.526 128.27 57.526" fill="#222831"/>
     <polygon id="Fill-29" points="144.26 43.13 147.98 43.13 153.9 50.739 153.9 43.13 157.85 43.13 157.85 57.526 154.35 57.526 148.2 49.629 148.2 57.526 144.26 57.526" fill="#222831"/>
     <polygon id="Fill-30" points="165.77 46.626 161.45 46.626 161.45 43.13 174.08 43.13 174.08 46.626 169.76 46.626 169.76 57.526 165.77 57.526" fill="#222831"/>
     <path id="Fill-31" fill="#222831" d="m184.96 55.387l2.22-2.653c1.42 1.131 3 1.728 4.67 1.728 1.07 0 1.65-0.371 1.65-0.987v-0.042c0-0.596-0.48-0.925-2.43-1.378-3.07-0.699-5.43-1.562-5.43-4.524v-0.04c0-2.675 2.12-4.607 5.57-4.607 2.45 0 4.36 0.658 5.93 1.912l-2 2.817c-1.32-0.925-2.76-1.418-4.03-1.418-0.97 0-1.44 0.411-1.44 0.924v0.042c0 0.658 0.49 0.946 2.49 1.398 3.31 0.72 5.37 1.79 5.37 4.483v0.042c0 2.94-2.33 4.688-5.82 4.688-2.55 0-4.98-0.802-6.75-2.385"/>
     <path id="Fill-32" fill="#222831" d="m201.13 51.212v-8.081h4.05v7.999c0 2.077 1.05 3.064 2.65 3.064 1.61 0 2.65-0.946 2.65-2.962v-8.101h4.06v7.979c0 4.647-2.66 6.683-6.75 6.683s-6.66-2.077-6.66-6.581"/>
     <polygon id="Fill-33" points="219.25 57.526 223.26 57.526 223.26 43.13 219.25 43.13" fill="#222831"/>
     <polygon id="Fill-34" points="231.67 46.626 227.35 46.626 227.35 43.13 239.98 43.13 239.98 46.626 235.66 46.626 235.66 57.526 231.67 57.526" fill="#222831"/>
     <polygon id="Fill-35" points="243.99 43.13 255.57 43.13 255.57 46.524 247.94 46.524 247.94 48.704 254.85 48.704 254.85 51.85 247.94 51.85 247.94 54.133 255.67 54.133 255.67 57.526 243.99 57.526" fill="#222831"/>
    </g>
    <g id="Group-9" transform="translate(.065181 21.546)">
     <g id="Group-8" transform="translate(.041856 .079488)">
      <polygon id="Fill-1" points="5.4341 12.658 0.30076 12.658 0.30076 34.485 11.984 41.329 15.173 39.461 6.7927 34.551 5.4341 33.755 5.4341 32.181" fill="#BDC5CA"/>
      <polygon id="Fill-3" points="15.979 32.933 14.62 32.138 14.62 30.563 14.62 7.0504 8.1823 7.0504 8.1823 32.181 21.824 40.173 25.08 38.266" fill="#727D84"/>
      <polygon id="Fill-6" points="17.368 4.3027 49.621 4.3027 49.621 0.43512 17.368 0.43512" fill="#222831"/>
      <path id="Fill-7" fill="#222831" d="m45.178 27.454l-11.273 6.064v-21.452h11.273v15.388zm-27.81-20.404v23.512l16.126 9.45 16.127-9.45v-23.512l-32.253 0.0005z"/>
     </g>
    </g>
   </g>
  </g>
 </g>
</svg>
